<svg width="32" height="32" viewBox="0 0 32 32" fill="none" xmlns="http://www.w3.org/2000/svg">
<path d="M16.0845 2.57792C23.1539 2.57792 28.9533 8.0028 29.5413 14.9169H21.1331C20.6327 12.5392 18.5243 10.7497 15.9969 10.7497C13.4694 10.7497 11.3611 12.5392 10.8606 14.9169H2.62757C3.2219 8.0028 9.02131 2.57792 16.0845 2.57792ZM18.8935 14.9169C19.0186 15.2548 19.0874 15.6177 19.0874 15.9993H19.0936C19.0936 16.381 19.0248 16.7439 18.8997 17.0818C18.4618 18.2581 17.3294 19.0903 16.0031 19.0903C14.6768 19.0903 13.5445 18.2519 13.1065 17.0818C12.9814 16.7439 12.9126 16.381 12.9126 15.9993H12.9064C12.9064 15.6177 12.9752 15.2548 13.1003 14.9169C13.5382 13.7405 14.6706 12.9083 15.9969 12.9083C17.3232 12.9083 18.4555 13.7468 18.8935 14.9169ZM15.9093 29.427C8.83988 29.427 3.04047 24.0021 2.45239 17.0881H10.8606C11.3611 19.4658 13.4694 21.2553 15.9969 21.2553C18.5243 21.2553 20.6327 19.4658 21.1331 17.0881H29.3724C28.7781 23.9959 22.9787 29.427 15.9093 29.427ZM15.9969 0C7.16325 0 0 7.16435 0 15.9993C0 24.8343 7.16325 31.9987 15.9969 31.9987C24.8305 31.9987 32 24.8406 32 15.9993C32 7.1581 24.8368 0 15.9969 0Z" fill="white"/>
</svg>
