<svg width="16" height="16" viewBox="0 0 16 16" fill="none" xmlns="http://www.w3.org/2000/svg">
<path fill-rule="evenodd" clip-rule="evenodd" d="M10.6937 0.015665C10.7053 -0.000951152 10.7282 -0.00498931 10.7448 0.00664544L11.8809 0.802131C11.8975 0.813766 11.9016 0.836666 11.8899 0.853281L10.3087 3.11148C11.0774 3.35706 11.6012 3.62197 11.6012 3.62197C11.6012 3.62197 10.321 5.82391 8.14981 5.82391C5.97859 5.82391 4.43575 3.77166 4.43575 3.77166C4.43575 3.77166 4.98281 3.42253 5.79375 3.1231L4.05937 1.05617C4.04634 1.04063 4.04837 1.01747 4.06391 1.00443L5.12631 0.112958C5.14188 0.0999194 5.16503 0.101946 5.17806 0.117485L7.37406 2.73458C7.56209 2.71331 7.75366 2.70142 7.94697 2.70142C8.22481 2.70142 8.50231 2.72254 8.77322 2.75838L10.6937 0.015665ZM11.1233 5.92819C11.7027 5.51437 12.5794 4.43431 12.5794 4.43431C12.5794 4.43431 14.8189 6.209 14.8189 9.972C14.8189 13.735 10.9472 15.9998 10.9472 15.9998C10.9472 15.9998 9.09731 14.1316 8.64319 11.7634C8.18909 9.39528 9.31494 6.76572 9.31494 6.76572C9.31494 6.76572 10.5438 6.342 11.1233 5.92819ZM4.88316 5.92819C4.30375 5.51437 3.427 4.43431 3.427 4.43431C3.427 4.43431 1.1875 6.209 1.1875 9.972C1.1875 13.735 5.05925 15.9998 5.05925 15.9998C5.05925 15.9998 6.90909 14.1316 7.36322 11.7634C7.81731 9.39528 6.69147 6.76572 6.69147 6.76572C6.69147 6.76572 5.46259 6.342 4.88316 5.92819Z" fill="white"/>
</svg>
