<svg width="16" height="16" viewBox="0 0 16 16" fill="none" xmlns="http://www.w3.org/2000/svg">
<g clip-path="url(#clip0_743_878)">
<path fill-rule="evenodd" clip-rule="evenodd" d="M7.16809 14.1516C7.47206 14.1981 7.78338 14.2222 8.10038 14.2222C11.4754 14.2222 14.2115 11.4862 14.2115 8.11112C14.2115 4.73603 11.4754 2 8.10038 2C7.87394 2 7.65034 2.01232 7.43031 2.03632C9.10453 3.30472 10.2115 5.50194 10.2115 8C10.2115 10.6263 8.988 12.92 7.16809 14.1516ZM7.98925 16C12.4075 16 15.9893 12.4183 15.9893 8C15.9893 3.58172 12.4075 0 7.98925 0C3.57097 0 -0.0107422 3.58172 -0.0107422 8C-0.0107422 12.4183 3.57097 16 7.98925 16Z" fill="white"/>
</g>
<defs>
<clipPath id="clip0_743_878">
<rect width="16" height="16" fill="white"/>
</clipPath>
</defs>
</svg>
