<svg width="16" height="16" viewBox="0 0 16 16" fill="none" xmlns="http://www.w3.org/2000/svg">
<g clip-path="url(#clip0_743_895)">
<path fill-rule="evenodd" clip-rule="evenodd" d="M3.21019 12.6868L5.7765 11.9427L7.99306 15.9955C7.99597 16.0008 8.0035 16.0008 8.00638 15.9955L10.2229 11.9427L12.7893 12.6868C12.795 12.6885 12.8004 12.6831 12.7987 12.6774L12.0544 10.1618L15.9955 8.00638C16.0008 8.0035 16.0008 7.99597 15.9955 7.99309L12.0219 5.81984L12.7987 3.19453C12.8004 3.18878 12.795 3.18344 12.7893 3.18509L10.1628 3.94669L8.00638 0.00394338C8.0035 -0.00131436 7.99597 -0.00131451 7.99309 0.00394325L5.83672 3.94669L3.21019 3.18509C3.20444 3.18344 3.19909 3.18878 3.20081 3.19453L3.97753 5.81984L0.00394338 7.99309C-0.00131436 7.99597 -0.00131451 8.0035 0.00394325 8.00638L3.94503 10.1618L3.20081 12.6774C3.19909 12.6831 3.20444 12.6885 3.21019 12.6868ZM5.20162 8.02738L7.01972 9.02172L8.01406 10.8398C8.01694 10.8451 8.0245 10.8451 8.02738 10.8398L9.02172 9.02172L10.8398 8.02738C10.845 8.0245 10.845 8.01694 10.8398 8.01406L9.02172 7.01972L8.02738 5.20166C8.0245 5.19637 8.01694 5.19637 8.01406 5.20166L7.01972 7.01972L5.20162 8.01406C5.19637 8.01694 5.19637 8.0245 5.20162 8.02738Z" fill="white"/>
</g>
<defs>
<clipPath id="clip0_743_895">
<rect width="16" height="16" fill="white"/>
</clipPath>
</defs>
</svg>
