<svg width="16" height="16" viewBox="0 0 16 16" fill="none" xmlns="http://www.w3.org/2000/svg">
<g clip-path="url(#clip0_743_899)">
<path fill-rule="evenodd" clip-rule="evenodd" d="M2.7573 1.33018C2.95093 0.565669 3.64353 0 4.46822 0C5.08681 0 5.63109 0.318272 5.94622 0.8H6.46225C6.78284 0.470987 7.23075 0.266667 7.72641 0.266667C8.45309 0.266667 9.07722 0.705881 9.34778 1.33333H9.77981C10.0505 1.16433 10.3704 1.06667 10.7131 1.06667C11.4398 1.06667 12.0639 1.50588 12.3344 2.13333H13.5093C13.5193 2.13333 13.5287 2.13604 13.5368 2.14075C13.5905 2.13584 13.6448 2.13333 13.6997 2.13333C14.6744 2.13333 15.4646 2.92348 15.4646 3.89819V9.19019L15.4646 9.2L15.4646 9.20981V9.28603C15.4646 9.31831 15.4637 9.35047 15.4619 9.38247C15.3558 13.0537 12.0547 16 7.99791 16C3.87419 16 0.53125 12.9555 0.53125 9.2C0.53125 7.38722 1.31015 5.74009 2.5798 4.52109C2.57663 6.28837 2.60648 8.11544 2.74408 8.08409C3.11253 8.00009 2.82466 2.52623 2.7573 1.33018Z" fill="white"/>
</g>
<defs>
<clipPath id="clip0_743_899">
<rect width="16" height="16" fill="white"/>
</clipPath>
</defs>
</svg>
