<svg width="16" height="16" viewBox="0 0 16 16" fill="none" xmlns="http://www.w3.org/2000/svg">
<path fill-rule="evenodd" clip-rule="evenodd" d="M11.0081 12.3561C11.2058 11.6332 10.822 10.1472 10.822 10.1472C10.822 10.1472 10.5437 11.3578 10.1088 11.8052C9.73785 12.1869 9.28332 12.4516 8.63144 12.5212C9.16441 12.2623 9.53094 11.7225 9.53094 11.0986C9.53094 10.2228 8.80869 9.51278 7.91775 9.51278C7.02682 9.51278 6.30454 10.2228 6.30454 11.0986C6.30454 11.3378 6.35844 11.5646 6.45491 11.768C5.89766 11.3241 5.81004 10.6123 5.81004 10.6123C5.81004 10.6123 5.18779 13.1958 6.90235 14.411C8.61688 15.6263 11.9756 14.5817 11.9756 14.5817C11.9756 14.5817 7.16907 17.9637 3.60738 14.2828C0.539279 11.112 2.8066 6.93759 2.8066 6.93759C2.8066 6.93759 2.70868 7.32484 2.70868 7.77437C2.70868 8.22391 2.95241 8.56594 2.95241 8.56594C2.95241 8.56594 3.67944 7.03347 4.24525 6.41025C4.78075 5.82044 5.45204 5.34206 6.03185 4.92887C6.47816 4.61081 6.87029 4.33138 7.10447 4.06947C8.39438 2.62715 7.60347 0 7.60347 0C7.60347 0 9.05754 1.28188 9.46347 2.93743C9.61822 3.5685 9.51866 4.28653 9.42966 4.92863C9.28516 5.971 9.16838 6.81328 10.2123 6.75863C11.8992 6.67028 10.4333 4.06947 10.4333 4.06947C10.4333 4.06947 14.2599 6.08072 13.9741 9.59828C13.6882 13.1158 9.79138 13.9155 9.79138 13.9155C9.79138 13.9155 10.8103 13.0789 11.0081 12.3561Z" fill="white"/>
</svg>
