<svg width="16" height="16" viewBox="0 0 16 16" fill="none" xmlns="http://www.w3.org/2000/svg">
<g clip-path="url(#clip0_743_913)">
<path fill-rule="evenodd" clip-rule="evenodd" d="M3.04413 13.7703C2.98921 13.7186 2.9349 13.666 2.88122 13.6123C0.0473251 10.7784 0.0473256 6.18375 2.88122 3.34987C5.7151 0.51597 14.745 0.326385 14.745 0.326385C14.745 0.326385 15.9775 10.7784 13.1437 13.6123C10.6268 16.1292 6.7211 16.4107 3.8935 14.457L6.17188 11.661L9.81406 10.8747L6.84097 10.5775L8.73041 8.65365L10.8812 8.1825L9.18047 7.67884L10.8812 4.61084L8.4621 7.32422L7.52794 6.006L7.85678 8.1825L6.17188 10.0819L5.39085 7.67881V10.8747L3.04413 13.7703Z" fill="white"/>
</g>
<defs>
<clipPath id="clip0_743_913">
<rect width="16" height="16" fill="white"/>
</clipPath>
</defs>
</svg>
