<svg width="16" height="16" viewBox="0 0 16 16" fill="none" xmlns="http://www.w3.org/2000/svg">
<g clip-path="url(#clip0_743_876)">
<path fill-rule="evenodd" clip-rule="evenodd" d="M3.52387 13.7423C3.51953 13.7423 3.5165 13.738 3.51794 13.7339L7.60278 2.19169C7.60369 2.18918 7.60606 2.1875 7.60872 2.1875H11.9694C11.9721 2.1875 11.9745 2.18919 11.9753 2.19172L15.9996 13.734C16.001 13.7381 15.998 13.7423 15.9937 13.7423H3.64663H3.52387ZM0.00629081 13.7875C0.00190351 13.7875 -0.00113391 13.7831 0.000405023 13.779L3.04227 5.658C3.04319 5.65553 3.04553 5.65391 3.04816 5.65391H5.69119C5.69556 5.65391 5.69859 5.65825 5.69709 5.66234L2.7557 13.7833C2.7548 13.7858 2.75243 13.7875 2.74979 13.7875H0.00629081Z" fill="white"/>
</g>
<defs>
<clipPath id="clip0_743_876">
<rect width="16" height="16" fill="white"/>
</clipPath>
</defs>
</svg>
