<svg width="16" height="16" viewBox="0 0 16 16" fill="none" xmlns="http://www.w3.org/2000/svg">
<path fill-rule="evenodd" clip-rule="evenodd" d="M12.0095 1.22005L12.0587 5.5435L8.28777 7.35372L8.24127 3.27156L12.0095 1.22005Z" fill="white"/>
<path fill-rule="evenodd" clip-rule="evenodd" d="M15.7896 8.03272L12.0567 10.1679L8.32147 8.02934L12.0547 6.06834L15.7896 8.03272Z" fill="white"/>
<path fill-rule="evenodd" clip-rule="evenodd" d="M7.6575 8.03272L3.92453 10.1679L0.189331 8.02934L3.92259 6.06834L7.6575 8.03272Z" fill="white"/>
<path fill-rule="evenodd" clip-rule="evenodd" d="M3.88257 1.20235L7.75713 3.12128L7.65807 7.30303L3.99976 5.49122L3.88257 1.20235Z" fill="white"/>
<path fill-rule="evenodd" clip-rule="evenodd" d="M12.1149 14.7977L8.24036 12.8787L8.33942 8.69694L11.9977 10.5088L12.1149 14.7977Z" fill="white"/>
<path fill-rule="evenodd" clip-rule="evenodd" d="M4.01641 14.8366L3.96716 10.5131L7.73813 8.7029L7.78463 12.785L4.01641 14.8366Z" fill="white"/>
</svg>
