<svg width="16" height="16" viewBox="0 0 16 16" fill="none" xmlns="http://www.w3.org/2000/svg">
<g clip-path="url(#clip0_743_897)">
<path fill-rule="evenodd" clip-rule="evenodd" d="M14.2477 13.287C14.2477 13.287 12.2302 14.9051 8.21541 14.2355C5.16947 13.7275 3.54491 10.3698 3.54491 8.56496C3.54491 4.2859 6.71197 3.31211 8.85312 3.31211C10.9942 3.31211 12.391 5.39961 12.391 7.01586C12.391 8.63211 11.2479 10.0458 9.46894 10.0458C7.69 10.0458 7.16312 8.7969 7.16312 7.64868C7.16312 6.50049 8.09209 6.09596 8.93931 6.09596C9.78653 6.09596 10.0766 6.81927 10.0766 7.44093C10.0766 8.06261 9.59428 8.28524 9.19197 8.28524C8.78966 8.28524 8.74987 8.08227 8.59591 7.86896C8.44191 7.65568 8.79228 6.8483 8.21541 6.8483C7.63853 6.8483 7.531 7.77646 7.531 7.77646C7.531 7.77646 7.74131 9.56811 9.46894 9.53721C11.1966 9.50627 12.0162 8.17064 11.778 6.8483C11.5398 5.52593 10.2565 4.12077 8.00416 4.40471C5.75184 4.68865 4.83225 6.96439 5.23759 9.39639C5.64294 11.8284 8.55647 13.2376 10.8472 12.7306C13.1381 12.2236 15.4197 10.5652 15.4197 6.3604C15.4197 2.15558 11.778 -0.371892 7.43566 0.0446492C3.09331 0.461189 0.397781 4.25755 0.570318 8.81896C0.742856 13.3804 5.07109 15.8646 8.73106 15.9927C12.391 16.1207 14.6347 14.0021 14.6347 14.0021C14.6347 14.0021 15.1393 13.5521 14.9415 13.2007C14.7437 12.8494 14.2477 13.287 14.2477 13.287Z" fill="white"/>
</g>
<defs>
<clipPath id="clip0_743_897">
<rect width="16" height="16" fill="white"/>
</clipPath>
</defs>
</svg>
