<svg width="16" height="16" viewBox="0 0 16 16" fill="none" xmlns="http://www.w3.org/2000/svg">
<g clip-path="url(#clip0_743_901)">
<path fill-rule="evenodd" clip-rule="evenodd" d="M12.3481 7.64866C12.3472 7.64741 12.3468 7.64584 12.347 7.64431L13.3678 1.69224C13.3683 1.6895 13.3707 1.6875 13.3734 1.6875H13.6965C13.699 1.6875 13.7012 1.68912 13.7019 1.69149L16.0016 8.97284C16.0023 8.97509 16.0015 8.97759 15.9997 8.97906L14.3041 10.3029C14.3015 10.3049 14.2979 10.3044 14.296 10.3018L12.3481 7.64866ZM-0.03125 11.5944C-0.03125 11.5969 -0.0296626 11.5991 -0.0273159 11.5999L3.46797 12.7427C3.46966 12.7433 3.47153 12.743 3.473 12.742L11.2858 7.34825C11.2871 7.34734 11.288 7.34594 11.2882 7.34438L12.126 1.72276C12.1265 1.71931 12.1238 1.71621 12.1204 1.71621H5.20019C5.19847 1.71621 5.19688 1.71697 5.19578 1.71828L-0.0299367 8.02231C-0.0307856 8.02334 -0.03125 8.02462 -0.03125 8.02597V11.5944ZM4.92447 13.0339L8.743 14.2847C8.74472 14.2853 8.74662 14.285 8.74809 14.284L13.2943 11.0229C13.2968 11.0212 13.2975 11.0177 13.2957 11.0151L11.5915 8.47903C11.5897 8.47638 11.5862 8.47569 11.5835 8.4775L4.92447 13.0339Z" fill="white"/>
</g>
<defs>
<clipPath id="clip0_743_901">
<rect width="16" height="16" fill="white"/>
</clipPath>
</defs>
</svg>
