<svg width="16" height="16" viewBox="0 0 16 16" fill="none" xmlns="http://www.w3.org/2000/svg">
<path fill-rule="evenodd" clip-rule="evenodd" d="M0.00159721 7.95397C-0.000531394 7.95034 -0.000532462 7.94584 0.00159436 7.94219L4.02484 1.06826C4.02694 1.06469 4.03078 1.0625 4.03491 1.0625H12.0092C12.0133 1.0625 12.0172 1.06471 12.0193 1.06831L15.9984 7.94225C16.0005 7.94584 16.0005 7.95031 15.9984 7.95391L12.0193 14.8201C12.0172 14.8237 12.0133 14.8259 12.0092 14.8259H4.03491C4.03078 14.8259 4.02694 14.8238 4.02484 14.8202L0.00159721 7.95397ZM11.7068 7.94422C11.7068 9.99072 10.0478 11.6497 8.00125 11.6497C5.95475 11.6497 4.29572 9.99072 4.29572 7.94422C4.29572 5.89769 5.95475 4.23869 8.00125 4.23869C10.0478 4.23869 11.7068 5.89769 11.7068 7.94422Z" fill="white"/>
</svg>
