<svg width="16" height="16" viewBox="0 0 16 16" fill="none" xmlns="http://www.w3.org/2000/svg">
<path fill-rule="evenodd" clip-rule="evenodd" d="M13.1929 10.8286C13.1929 13.6843 10.8692 15.9993 8.00269 15.9993C5.13622 15.9993 2.8125 13.6843 2.8125 10.8286C2.8125 8.05122 7.72194 0.423372 7.99119 0.00711906C7.99734 -0.00237308 8.00806 -0.002373 8.01419 0.00711915C8.28344 0.423372 13.1929 8.05122 13.1929 10.8286ZM7.1375 14.3416C4.50375 13.7653 4.95444 10.8478 4.95444 10.8478C4.95444 10.8478 5.67362 12.609 7.41891 13.1795C9.16416 13.75 11.2733 12.9133 11.2733 12.9133C11.2733 12.9133 9.77125 14.9178 7.1375 14.3416Z" fill="white"/>
</svg>
