<svg width="400" height="400" viewBox="0 0 400 400" fill="none" xmlns="http://www.w3.org/2000/svg">
<path d="M201.056 32.2253C289.423 32.2253 361.916 100.039 369.267 186.469H264.164C257.908 156.746 231.554 134.376 199.961 134.376C168.368 134.376 142.014 156.746 135.758 186.469H32.8446C40.2737 100.039 112.766 32.2253 201.056 32.2253ZM236.168 186.469C237.732 190.692 238.592 195.229 238.592 200H238.671C238.671 204.771 237.81 209.308 236.246 213.531C230.772 228.236 216.618 238.639 200.039 238.639C183.46 238.639 169.306 228.158 163.832 213.531C162.268 209.308 161.408 204.771 161.408 200H161.329C161.329 195.229 162.19 190.692 163.754 186.469C169.228 171.764 183.382 161.361 199.961 161.361C216.54 161.361 230.694 171.842 236.168 186.469ZM198.866 367.853C110.499 367.853 38.0059 300.039 30.6549 213.61H135.758C142.014 243.332 168.368 265.702 199.961 265.702C231.554 265.702 257.908 243.332 264.164 213.61H367.155C359.726 299.961 287.234 367.853 198.866 367.853ZM199.961 0C89.5406 0 0 89.5581 0 200C0 310.442 89.5406 400 199.961 400C310.381 400 400 310.52 400 200C400 89.4798 310.459 0 199.961 0Z" fill="white" fill-opacity="0.05"/>
</svg>
