<svg width="56" height="56" viewBox="0 0 56 56" fill="none" xmlns="http://www.w3.org/2000/svg">
<path fill-rule="evenodd" clip-rule="evenodd" d="M38.5282 43.2462C39.2201 40.7163 37.8771 35.5152 37.8771 35.5152C37.8771 35.5152 36.903 39.7522 35.381 41.3183C34.0825 42.6541 32.4916 43.5806 30.21 43.8241C32.0754 42.918 33.3583 41.0288 33.3583 38.8451C33.3583 35.7797 30.8304 33.2947 27.7121 33.2947C24.5939 33.2947 22.0659 35.7797 22.0659 38.8451C22.0659 39.6822 22.2545 40.4762 22.5922 41.188C20.6418 39.6342 20.3351 37.1431 20.3351 37.1431C20.3351 37.1431 18.1572 46.1851 24.1582 50.4385C30.1591 54.6919 41.9146 51.0359 41.9146 51.0359C41.9146 51.0359 25.0917 62.8728 12.6258 49.9898C1.88748 38.892 9.8231 24.2816 9.8231 24.2816C9.8231 24.2816 9.48039 25.637 9.48039 27.2103C9.48039 28.7837 10.3334 29.9808 10.3334 29.9808C10.3334 29.9808 12.878 24.6171 14.8584 22.4359C16.7326 20.3715 19.0821 18.6972 21.1115 17.2511C22.6736 16.1378 24.046 15.1598 24.8657 14.2431C29.3803 9.19502 26.6122 0 26.6122 0C26.6122 0 31.7014 4.48656 33.1222 10.281C33.6638 12.4898 33.3153 15.0029 33.0038 17.2502C32.4981 20.8985 32.0893 23.8465 35.743 23.6552C41.6473 23.346 36.5166 14.2431 36.5166 14.2431C36.5166 14.2431 49.9098 21.2825 48.9092 33.594C47.9086 45.9055 34.2698 48.7044 34.2698 48.7044C34.2698 48.7044 37.8362 45.7762 38.5282 43.2462Z" fill="white"/>
</svg>
