<svg width="32" height="32" viewBox="0 0 32 32" fill="none" xmlns="http://www.w3.org/2000/svg">
<path d="M20.72 15.0533L13.1733 7.52001C13.0494 7.39504 12.9019 7.29584 12.7394 7.22815C12.577 7.16046 12.4027 7.12561 12.2267 7.12561C12.0506 7.12561 11.8764 7.16046 11.7139 7.22815C11.5514 7.29584 11.4039 7.39504 11.28 7.52001C11.0317 7.76982 10.8923 8.10776 10.8923 8.46001C10.8923 8.81226 11.0317 9.15019 11.28 9.40001L17.88 16.0667L11.28 22.6667C11.0317 22.9165 10.8923 23.2544 10.8923 23.6067C10.8923 23.9589 11.0317 24.2969 11.28 24.5467C11.4035 24.6727 11.5507 24.7729 11.7132 24.8415C11.8757 24.9102 12.0503 24.9459 12.2267 24.9467C12.4031 24.9459 12.5776 24.9102 12.7401 24.8415C12.9026 24.7729 13.0498 24.6727 13.1733 24.5467L20.72 17.0133C20.8553 16.8885 20.9633 16.7369 21.0372 16.5683C21.1111 16.3996 21.1492 16.2175 21.1492 16.0333C21.1492 15.8492 21.1111 15.6671 21.0372 15.4984C20.9633 15.3297 20.8553 15.1782 20.72 15.0533V15.0533Z" fill="white"/>
</svg>
