<svg width="24" height="24" viewBox="0 0 24 24" fill="none" xmlns="http://www.w3.org/2000/svg">
<path d="M19 4.00227H17.55C17.4306 3.63758 17.244 3.29842 17 3.00227C16.717 2.6859 16.3702 2.43318 15.9823 2.2608C15.5945 2.08842 15.1744 2.0003 14.75 2.00227H9.27C8.8422 1.99745 8.41832 2.08419 8.02681 2.25667C7.63529 2.42914 7.28519 2.68336 7 3.00227C6.74885 3.29682 6.55547 3.63608 6.43 4.00227H5C4.20435 4.00227 3.44129 4.31834 2.87868 4.88094C2.31607 5.44355 2 6.20662 2 7.00226V19.0023C2 19.7979 2.31607 20.561 2.87868 21.1236C3.44129 21.6862 4.20435 22.0023 5 22.0023H19C19.7956 22.0023 20.5587 21.6862 21.1213 21.1236C21.6839 20.561 22 19.7979 22 19.0023V7.00226C22 6.20662 21.6839 5.44355 21.1213 4.88094C20.5587 4.31834 19.7956 4.00227 19 4.00227ZM8.52 4.34227C8.61371 4.2356 8.72906 4.15011 8.85838 4.09148C8.9877 4.03286 9.12802 4.00244 9.27 4.00227H14.73C14.872 4.00244 15.0123 4.03286 15.1416 4.09148C15.2709 4.15011 15.3863 4.2356 15.48 4.34227C15.5744 4.44727 15.6454 4.57106 15.6885 4.70549C15.7316 4.83993 15.7457 4.98197 15.73 5.12227L15.23 9.12226C15.2005 9.36617 15.0823 9.5907 14.8979 9.75301C14.7134 9.91531 14.4757 10.004 14.23 10.0023H12.59L13.73 7.60226C13.8224 7.36691 13.8223 7.10528 13.7296 6.87004C13.6369 6.63479 13.4585 6.4434 13.2303 6.3344C13.0022 6.22539 12.7412 6.20686 12.4999 6.28254C12.2587 6.35822 12.055 6.52248 11.93 6.74226L10.37 10.0023H9.77C9.52432 10.004 9.28659 9.91531 9.10215 9.75301C8.91771 9.5907 8.79948 9.36617 8.77 9.12226L8.27 5.12227C8.25425 4.98197 8.26839 4.83993 8.31148 4.70549C8.35457 4.57106 8.42563 4.44727 8.52 4.34227ZM20 19.0023C20 19.2675 19.8946 19.5218 19.7071 19.7094C19.5196 19.8969 19.2652 20.0023 19 20.0023H5C4.73478 20.0023 4.48043 19.8969 4.29289 19.7094C4.10536 19.5218 4 19.2675 4 19.0023V7.00226C4 6.73705 4.10536 6.48269 4.29289 6.29516C4.48043 6.10762 4.73478 6.00226 5 6.00226H6.37L6.79 9.37226C6.88069 10.1022 7.23638 10.7733 7.78946 11.2582C8.34255 11.7431 9.05449 12.0079 9.79 12.0023H14.25C14.9855 12.0079 15.6975 11.7431 16.2505 11.2582C16.8036 10.7733 17.1593 10.1022 17.25 9.37226L17.63 6.00226H19C19.2652 6.00226 19.5196 6.10762 19.7071 6.29516C19.8946 6.48269 20 6.73705 20 7.00226V19.0023ZM14 16.0023H10C9.73478 16.0023 9.48043 16.1076 9.29289 16.2952C9.10536 16.4827 9 16.737 9 17.0023C9 17.2675 9.10536 17.5218 9.29289 17.7094C9.48043 17.8969 9.73478 18.0023 10 18.0023H14C14.2652 18.0023 14.5196 17.8969 14.7071 17.7094C14.8946 17.5218 15 17.2675 15 17.0023C15 16.737 14.8946 16.4827 14.7071 16.2952C14.5196 16.1076 14.2652 16.0023 14 16.0023Z" fill="white"/>
</svg>
