<svg width="24" height="24" viewBox="0 0 24 24" fill="none" xmlns="http://www.w3.org/2000/svg">
<path d="M21 2.00232H3C2.73478 2.00232 2.48043 2.10768 2.29289 2.29521C2.10536 2.48275 2 2.7371 2 3.00232V21.0023C2 21.2675 2.10536 21.5219 2.29289 21.7094C2.48043 21.897 2.73478 22.0023 3 22.0023H9C9.26522 22.0023 9.51957 21.897 9.70711 21.7094C9.89464 21.5219 10 21.2675 10 21.0023V10.0023H21C21.2652 10.0023 21.5196 9.89696 21.7071 9.70943C21.8946 9.52189 22 9.26754 22 9.00232V3.00232C22 2.7371 21.8946 2.48275 21.7071 2.29521C21.5196 2.10768 21.2652 2.00232 21 2.00232ZM20 8.00232H18V7.00232C18 6.7371 17.8946 6.48275 17.7071 6.29521C17.5196 6.10768 17.2652 6.00232 17 6.00232C16.7348 6.00232 16.4804 6.10768 16.2929 6.29521C16.1054 6.48275 16 6.7371 16 7.00232V8.00232H14V7.00232C14 6.7371 13.8946 6.48275 13.7071 6.29521C13.5196 6.10768 13.2652 6.00232 13 6.00232C12.7348 6.00232 12.4804 6.10768 12.2929 6.29521C12.1054 6.48275 12 6.7371 12 7.00232V8.00232H10V7.00232C10 6.7371 9.89464 6.48275 9.70711 6.29521C9.51957 6.10768 9.26522 6.00232 9 6.00232C8.73478 6.00232 8.48043 6.10768 8.29289 6.29521C8.10536 6.48275 8 6.7371 8 7.00232V8.00232H7C6.73478 8.00232 6.48043 8.10768 6.29289 8.29521C6.10536 8.48275 6 8.7371 6 9.00232C6 9.26754 6.10536 9.52189 6.29289 9.70943C6.48043 9.89696 6.73478 10.0023 7 10.0023H8V12.0023H7C6.73478 12.0023 6.48043 12.1077 6.29289 12.2952C6.10536 12.4827 6 12.7371 6 13.0023C6 13.2675 6.10536 13.5219 6.29289 13.7094C6.48043 13.897 6.73478 14.0023 7 14.0023H8V16.0023H7C6.73478 16.0023 6.48043 16.1077 6.29289 16.2952C6.10536 16.4827 6 16.7371 6 17.0023C6 17.2675 6.10536 17.5219 6.29289 17.7094C6.48043 17.897 6.73478 18.0023 7 18.0023H8V20.0023H4V4.00232H20V8.00232Z" fill="white"/>
</svg>
