<svg width="32" height="32" viewBox="0 0 32 32" fill="none" xmlns="http://www.w3.org/2000/svg">
<path d="M11.28 16.9467L18.8267 24.48C18.9506 24.605 19.0981 24.7042 19.2606 24.7718C19.423 24.8395 19.5973 24.8744 19.7733 24.8744C19.9494 24.8744 20.1236 24.8395 20.2861 24.7718C20.4486 24.7042 20.5961 24.605 20.72 24.48C20.9683 24.2302 21.1077 23.8922 21.1077 23.54C21.1077 23.1877 20.9683 22.8498 20.72 22.6L14.12 15.9333L20.72 9.33333C20.9683 9.08351 21.1077 8.74557 21.1077 8.39333C21.1077 8.04108 20.9683 7.70314 20.72 7.45333C20.5965 7.32734 20.4493 7.22712 20.2868 7.15845C20.1243 7.08979 19.9497 7.05406 19.7733 7.05333C19.5969 7.05406 19.4224 7.08979 19.2599 7.15845C19.0974 7.22712 18.9502 7.32734 18.8267 7.45333L11.28 14.9867C11.1447 15.1115 11.0367 15.2631 10.9628 15.4317C10.8889 15.6004 10.8508 15.7825 10.8508 15.9667C10.8508 16.1508 10.8889 16.3329 10.9628 16.5016C11.0367 16.6703 11.1447 16.8218 11.28 16.9467Z" fill="white"/>
</svg>
