<svg width="48" height="48" viewBox="0 0 48 48" fill="none" xmlns="http://www.w3.org/2000/svg">
<path d="M31.4199 16.58C31.234 16.3925 31.0128 16.2438 30.7691 16.1422C30.5253 16.0407 30.2639 15.9884 29.9999 15.9884C29.7359 15.9884 29.4745 16.0407 29.2308 16.1422C28.987 16.2438 28.7658 16.3925 28.5799 16.58L23.9999 21.18L19.4199 16.58C19.0433 16.2034 18.5325 15.9918 17.9999 15.9918C17.4673 15.9918 16.9565 16.2034 16.5799 16.58C16.2033 16.9566 15.9917 17.4674 15.9917 18C15.9917 18.5326 16.2033 19.0434 16.5799 19.42L21.1799 24L16.5799 28.58C16.3925 28.7659 16.2437 28.9871 16.1421 29.2309C16.0406 29.4746 15.9883 29.736 15.9883 30C15.9883 30.264 16.0406 30.5254 16.1421 30.7692C16.2437 31.0129 16.3925 31.2341 16.5799 31.42C16.7658 31.6075 16.987 31.7563 17.2308 31.8578C17.4745 31.9593 17.7359 32.0116 17.9999 32.0116C18.2639 32.0116 18.5253 31.9593 18.7691 31.8578C19.0128 31.7563 19.234 31.6075 19.4199 31.42L23.9999 26.82L28.5799 31.42C28.7658 31.6075 28.987 31.7563 29.2308 31.8578C29.4745 31.9593 29.7359 32.0116 29.9999 32.0116C30.2639 32.0116 30.5253 31.9593 30.7691 31.8578C31.0128 31.7563 31.234 31.6075 31.4199 31.42C31.6074 31.2341 31.7562 31.0129 31.8577 30.7692C31.9592 30.5254 32.0115 30.264 32.0115 30C32.0115 29.736 31.9592 29.4746 31.8577 29.2309C31.7562 28.9871 31.6074 28.7659 31.4199 28.58L26.8199 24L31.4199 19.42C31.6074 19.2341 31.7562 19.0129 31.8577 18.7692C31.9592 18.5254 32.0115 18.264 32.0115 18C32.0115 17.736 31.9592 17.4746 31.8577 17.2309C31.7562 16.9871 31.6074 16.7659 31.4199 16.58V16.58ZM38.1399 9.86001C36.295 7.9498 34.0881 6.42616 31.648 5.37798C29.2079 4.3298 26.5835 3.77807 23.9279 3.755C21.2724 3.73192 18.6388 4.23795 16.1808 5.24357C13.7229 6.24919 11.4899 7.73425 9.61202 9.61211C7.73416 11.49 6.2491 13.723 5.24348 16.1809C4.23786 18.6389 3.73183 21.2724 3.75491 23.928C3.77798 26.5836 4.32971 29.208 5.37789 31.6481C6.42607 34.0882 7.94971 36.2951 9.85991 38.14C11.7049 40.0502 13.9117 41.5739 16.3518 42.622C18.7919 43.6702 21.4163 44.2219 24.0719 44.245C26.7275 44.2681 29.3611 43.7621 31.819 42.7564C34.2769 41.7508 36.51 40.2658 38.3878 38.3879C40.2657 36.5101 41.7507 34.277 42.7564 31.8191C43.762 29.3612 44.268 26.7276 44.2449 24.072C44.2219 21.4164 43.6701 18.792 42.6219 16.3519C41.5738 13.9118 40.0501 11.7049 38.1399 9.86001V9.86001ZM35.3199 35.32C32.704 37.9388 29.261 39.5697 25.5775 39.9346C21.894 40.2996 18.1979 39.3761 15.119 37.3216C12.04 35.267 9.76863 32.2084 8.69186 28.667C7.61509 25.1255 7.79952 21.3203 9.21374 17.8996C10.628 14.4789 13.1845 11.6543 16.4477 9.90713C19.7109 8.15996 23.479 7.59827 27.1099 8.31775C30.7409 9.03724 34.01 10.9934 36.3604 13.8529C38.7108 16.7125 39.997 20.2985 39.9999 24C40.0071 26.1026 39.5971 28.1857 38.7938 30.1288C37.9905 32.0719 36.8097 33.8363 35.3199 35.32V35.32Z" fill="white"/>
</svg>
