<svg width="32" height="32" viewBox="0 0 32 32" fill="none" xmlns="http://www.w3.org/2000/svg">
<path d="M15.992 2.66667C8.62817 2.66667 2.65869 8.63623 2.65869 16C2.65869 23.3638 8.62817 29.3333 15.992 29.3333C23.3558 29.3333 29.3254 23.3638 29.3254 16C29.3254 8.63623 23.3558 2.66667 15.992 2.66667ZM20.2318 22.87C20.0384 23.3521 19.4908 23.5863 19.0086 23.3928C18.9698 23.3773 18.9321 23.3592 18.8957 23.3386L15.2762 20.5261L12.9531 22.6693C12.8436 22.7502 12.7003 22.7699 12.5732 22.7213L13.0185 18.7367L13.0327 18.748L13.0418 18.6693C13.0418 18.6693 19.5552 12.7393 19.8205 12.4867C20.0891 12.2346 20.0005 12.1799 20.0005 12.1799C20.0158 11.8726 19.5185 12.1799 19.5185 12.1799L10.8884 17.732L7.29442 16.508C7.29442 16.508 6.74242 16.31 6.69042 15.8747C6.63573 15.4426 7.31241 15.208 7.31241 15.208L21.6017 9.53133C21.6017 9.53133 22.7764 9.00798 22.7764 9.87468L20.2318 22.87Z" fill="white"/>
</svg>
